<svg preserveAspectRatio="none" width="100%" height="100%" overflow="visible" style="display: block;" viewBox="0 0 168.382 23.6" fill="none" xmlns="http://www.w3.org/2000/svg">
<g id="Paths">
<path d="M0 4.36364V19.6L7.4286 23.6V0L0 4.36364Z" fill="var(--fill-0, #15181D)"/>
<path d="M24.0701 10.8364H32.1906V2.54545H35.0309V21.3818H32.1906V13.5273H24.0701V21.4182H21.2298V2.54545H24.0701V10.8364Z" fill="var(--fill-0, #15181D)"/>
<path fill-rule="evenodd" clip-rule="evenodd" d="M37.5071 15.3818C37.5071 13.6727 38.1262 12.2182 39.3643 11.0182C40.6024 9.81818 42.0954 9.2 43.8433 9.2C45.6276 9.2 47.1206 9.81818 48.3587 11.0182C49.5968 12.2182 50.1794 13.7091 50.1794 15.4909C50.1794 17.2727 49.5604 18.7636 48.3223 19.9636C47.0842 21.1636 45.5548 21.7455 43.7705 21.7455C41.9861 21.7455 40.4931 21.1273 39.2915 19.9273C38.0898 18.7273 37.5071 17.2 37.5071 15.3818ZM40.3111 15.4545C40.3111 16.6545 40.6388 17.5636 41.2578 18.2545C41.9133 18.9455 42.7508 19.3091 43.8433 19.3091C44.9357 19.3091 45.7733 18.9455 46.4287 18.2545C47.0842 17.5636 47.3755 16.6545 47.3755 15.4909C47.3755 14.3273 47.0478 13.4182 46.4287 12.7273C45.7733 12.0364 44.9357 11.6727 43.8433 11.6727C42.7873 11.6727 41.9497 12.0364 41.2943 12.7273C40.6388 13.4182 40.3111 14.3273 40.3111 15.4545Z" fill="var(--fill-0, #15181D)"/>
<path d="M55.3867 9.52727V16.3273C55.3867 18.2909 56.1515 19.2727 57.7173 19.2727C59.2831 19.2727 60.0478 18.2909 60.0478 16.3273V9.52727H62.7789V16.4C62.7789 17.3455 62.6697 18.1818 62.4148 18.8727C62.1963 19.4909 61.7957 20.0364 61.2131 20.5455C60.3027 21.3455 59.101 21.7455 57.6809 21.7455C56.2607 21.7455 55.0954 21.3455 54.1486 20.5455C53.566 20.0364 53.1654 19.4909 52.947 18.8727C52.7285 18.3273 52.6192 17.4909 52.6192 16.4V9.52727H55.3867Z" fill="var(--fill-0, #15181D)"/>
<path d="M72.9386 11.5636L70.6809 12.7636C70.3168 12.0364 69.8798 11.6727 69.3336 11.6727C69.0787 11.6727 68.8602 11.7455 68.6781 11.9273C68.496 12.1091 68.4232 12.2909 68.4232 12.5818C68.4232 13.0545 68.9694 13.4909 70.0254 13.9273C71.482 14.5455 72.4652 15.1273 72.975 15.6727C73.4848 16.2182 73.7397 16.9091 73.7397 17.8182C73.7397 18.9818 73.3028 19.9273 72.4652 20.6909C71.6277 21.4182 70.6445 21.7818 69.4792 21.7818C67.4764 21.7818 66.0562 20.8 65.2551 18.8727L67.5857 17.7818C67.9134 18.3636 68.1683 18.7273 68.314 18.8727C68.6417 19.1636 69.0422 19.3455 69.5156 19.3455C70.426 19.3455 70.8994 18.9091 70.8994 18.0727C70.8994 17.6 70.5353 17.1273 69.807 16.6909C69.6613 16.6182 69.5248 16.5546 69.3883 16.4909C69.2517 16.4273 69.1151 16.3636 68.9694 16.2909C68.8238 16.2182 68.6873 16.1546 68.5507 16.0909C68.4142 16.0273 68.2775 15.9636 68.1319 15.8909C67.3308 15.4909 66.7845 15.1273 66.4568 14.7273C66.0562 14.2182 65.8378 13.6 65.8378 12.8C65.8378 11.7818 66.2019 10.9091 66.8938 10.2545C67.6221 9.56364 68.496 9.23636 69.5156 9.23636C71.0815 9.2 72.2103 10 72.9386 11.5636Z" fill="var(--fill-0, #15181D)"/>
<path fill-rule="evenodd" clip-rule="evenodd" d="M87.5409 16.1091H79.0199C79.0927 17.0909 79.4204 17.8545 79.9667 18.4364C80.5129 19.0182 81.2412 19.2727 82.1151 19.2727C82.807 19.2727 83.3532 19.1273 83.8266 18.8C84.2636 18.4727 84.7734 17.8909 85.3196 16.9818L87.6502 18.2909C87.286 18.9091 86.9219 19.4182 86.5213 19.8545C86.1207 20.2909 85.6838 20.6545 85.2468 20.9455C84.7734 21.2364 84.3 21.4182 83.7538 21.5636C83.2076 21.7091 82.6613 21.7455 82.0423 21.7455C80.258 21.7455 78.8378 21.1636 77.7818 20.0364C76.6893 18.8727 76.1795 17.3818 76.1795 15.4909C76.1795 13.6 76.6893 12.1091 77.7454 10.9455C78.8014 9.78182 80.1851 9.23636 81.933 9.23636C83.681 9.23636 85.0647 9.78182 86.0843 10.9091C87.1039 12 87.6137 13.5636 87.6137 15.4909L87.5409 16.1091ZM84.737 13.8909C84.3364 12.4364 83.4261 11.7091 81.9695 11.7091C81.6417 11.7091 81.314 11.7455 81.0227 11.8545C80.7314 11.9636 80.4765 12.1091 80.2216 12.2909C79.9667 12.4727 79.7846 12.7273 79.6025 12.9818C79.4205 13.2363 79.3112 13.5636 79.202 13.8908L84.737 13.8909Z" fill="var(--fill-0, #15181D)"/>
<path fill-rule="evenodd" clip-rule="evenodd" d="M111.247 9.52727H114.014V21.4182H111.247V20.1818C110.118 21.2364 108.916 21.7818 107.605 21.7818C105.967 21.7818 104.619 21.2 103.527 20C102.471 18.8 101.925 17.2727 101.925 15.4545C101.925 13.6727 102.471 12.1818 103.527 11.0182C104.583 9.81818 105.93 9.23636 107.533 9.23636C108.916 9.23636 110.154 9.81818 111.247 10.9455V9.52727ZM104.729 15.4545C104.729 16.5818 105.02 17.5273 105.639 18.2182C106.258 18.9455 107.059 19.3091 108.006 19.3091C109.026 19.3091 109.863 18.9455 110.482 18.2545C111.101 17.5273 111.429 16.6182 111.429 15.4909C111.429 14.3636 111.101 13.4545 110.482 12.7273C109.863 12.0364 109.026 11.6727 108.042 11.6727C107.096 11.6727 106.294 12.0364 105.675 12.7636C105.02 13.4909 104.729 14.3636 104.729 15.4545Z" fill="var(--fill-0, #15181D)"/>
<path d="M119.877 2.58182V21.4182H117.146V2.58182H119.877Z" fill="var(--fill-0, #15181D)"/>
<path d="M125.776 2.58182V21.4182H123.045V2.58182H125.776Z" fill="var(--fill-0, #15181D)"/>
<path fill-rule="evenodd" clip-rule="evenodd" d="M136.992 13.7818V21.4182H134.152V2.58182H137.393C138.958 2.58182 140.16 2.69091 140.961 2.90909C141.762 3.12727 142.491 3.52727 143.11 4.14545C144.202 5.2 144.748 6.54545 144.748 8.14545C144.748 9.85454 144.166 11.2364 143 12.2545C141.835 13.2727 140.269 13.7818 138.339 13.7818H136.992ZM136.992 11.1273H138.048C140.67 11.1273 141.981 10.1091 141.981 8.10909C141.981 6.18182 140.634 5.2 137.939 5.2H136.992V11.1273Z" fill="var(--fill-0, #15181D)"/>
<path d="M149.883 9.52727V10.5818C150.393 10.0364 150.83 9.70909 151.23 9.49091C151.631 9.27273 152.104 9.2 152.65 9.2C153.379 9.2 154.143 9.41818 154.908 9.89091L153.634 12.4C153.124 12.0364 152.614 11.8545 152.104 11.8545C150.611 11.8545 149.846 12.9818 149.846 15.2364V21.3818H147.115V9.52727H149.883Z" fill="var(--fill-0, #15181D)"/>
<path fill-rule="evenodd" clip-rule="evenodd" d="M155.709 15.3818C155.709 13.6727 156.328 12.2182 157.566 11.0182C158.804 9.81818 160.297 9.2 162.045 9.2C163.83 9.2 165.323 9.81818 166.561 11.0182C167.799 12.2182 168.382 13.7091 168.382 15.4909C168.382 17.2727 167.762 18.7636 166.524 19.9636C165.286 21.1636 163.757 21.7455 161.973 21.7455C160.188 21.7455 158.695 21.1273 157.494 19.9273C156.328 18.7273 155.709 17.2 155.709 15.3818ZM158.513 15.4545C158.513 16.6545 158.841 17.5636 159.46 18.2545C160.115 18.9455 160.953 19.3091 162.045 19.3091C163.138 19.3091 163.975 18.9455 164.631 18.2545C165.286 17.5636 165.578 16.6545 165.578 15.4909C165.578 14.3273 165.25 13.4182 164.631 12.7273C163.975 12.0364 163.138 11.6727 162.045 11.6727C160.989 11.6727 160.152 12.0364 159.496 12.7273C158.841 13.4182 158.513 14.3273 158.513 15.4545Z" fill="var(--fill-0, #15181D)"/>
<path d="M96.4261 11.6727H96.4989C96.4989 11.6727 96.5353 11.7091 96.5353 11.6727C96.6446 11.6727 96.7902 11.6727 96.8995 11.7091C97.9191 11.7818 98.9023 12.0364 99.8127 12.5091V10.0364C98.7566 9.49091 97.6642 9.2 96.4989 9.2C94.6782 9.2 93.1488 9.81818 91.8743 11.0182C90.5997 12.2182 89.9807 13.7455 89.9807 15.4909C89.9807 17.2727 90.5997 18.7636 91.8378 19.9273C93.0759 21.1273 94.6054 21.7091 96.4625 21.7091C97.5914 21.7091 98.6838 21.4182 99.8127 20.8364V18.3636C98.8295 18.8727 97.8827 19.1273 96.8995 19.2C96.7174 19.2364 96.5353 19.2364 96.3533 19.2364C95.3337 19.2364 94.4597 18.8727 93.8042 18.1455C93.1488 17.4182 92.821 16.5091 92.821 15.4182C92.821 14.3273 93.1488 13.4182 93.8407 12.6909C94.5325 11.9636 95.3701 11.6727 96.4261 11.6727Z" fill="var(--fill-0, #15181D)"/>
<path d="M9.57706 21.3818H12.7087L12.7816 2.54545H9.57706V4.32727H10.9972L10.9608 19.6364H9.57706V21.3818Z" fill="var(--fill-0, #15181D)"/>
</g>
</svg>
